<?xml version="1.0" encoding="UTF-8"?>
<svg width="24px" height="26px" viewBox="0 0 24 26" version="1.1" xmlns="http://www.w3.org/2000/svg" xmlns:xlink="http://www.w3.org/1999/xlink">
    <!-- Generator: Sketch 59.1 (86144) - https://sketch.com -->
    <title>cc24-invoice</title>
    <desc>Created with Sketch.</desc>
    <g id="Page-1" stroke="none" stroke-width="1" fill="none" fill-rule="evenodd">
        <g id="cc24-invoice" fill="#000000" fill-rule="nonzero">
            <path d="M19,13 C18.9983526,13.5516009 18.5516009,13.9983526 18,14 L10,14 C9.44771525,14 9,13.5522847 9,13 C9,12.4477153 9.44771525,12 10,12 L18,12 C18.5516009,12.0016474 18.9983526,12.4483991 19,13 L19,13 Z" id="Path"></path>
            <path d="M19,18 C18.9983526,18.5516009 18.5516009,18.9983526 18,19 L10,19 C9.44771525,19 9,18.5522847 9,18 C9,17.4477153 9.44771525,17 10,17 L18,17 C18.5516009,17.0016474 18.9983526,17.4483991 19,18 L19,18 Z" id="Path"></path>
            <path d="M17,8 C16.9983526,8.55160093 16.5516009,8.9983526 16,9 L10,9 C9.44771525,9 9,8.55228475 9,8 C9,7.44771525 9.44771525,7 10,7 L16,7 C16.5516009,7.0016474 16.9983526,7.44839907 17,8 L17,8 Z" id="Path"></path>
            <path d="M23.53,0.15 C23.2323572,-0.0323245367 22.8615116,-0.0474610917 22.55,0.11 L18.98,1.89 L14.91,0.09 C14.6498374,-0.02999985 14.3501626,-0.02999985 14.09,0.09 L10.02,1.89 L6.45,0.11 C6.14071385,-0.0488266715 5.77096695,-0.0347529437 5.47464909,0.147124918 C5.17833122,0.329002779 4.99839595,0.652320176 5,1.00000011 L5,14.0000001 L1,14.0000001 C0.448399067,14.0016474 0.00164740056,14.4483991 0,15.0000001 L0,22.5000001 C0.0021273293,24.4321148 1.56788523,25.9978727 3.5,26.0000001 L20,26.0000001 C21.0609546,26.0002892 22.0785383,25.5789547 22.8287465,24.8287465 C23.5789547,24.0785383 24.0002892,23.0609546 24,22.0000001 L24,1.00000011 C24.0009241,0.65443876 23.8231598,0.332950117 23.53,0.15 Z M5,22.5 C5,23.3284271 4.32842712,24 3.5,24 C2.67157288,24 2,23.3284271 2,22.5 L2,16 L5,16 L5,22.5 Z M22,22 C21.9967762,23.1032314 21.1032314,23.9967762 20,24 L6.65,24 C6.88405597,23.5348622 7.00402924,23.020691 7,22.5 L7,2.62 L9.55,3.89 C9.81762911,4.03131292 10.1360911,4.03871901 10.41,3.91 L14.5,2.09 L18.59,3.91 C18.8639046,4.03873947 19.1823762,4.03133316 19.45,3.89 L22,2.62 L22,22 Z" id="Shape"></path>
        </g>
    </g>
</svg>