<?xml version="1.0" encoding="UTF-8"?>
<svg width="80px" height="80px" viewBox="0 0 80 80" version="1.1" xmlns="http://www.w3.org/2000/svg" xmlns:xlink="http://www.w3.org/1999/xlink">
    <!-- Generator: Sketch 59.1 (86144) - https://sketch.com -->
    <title>cc24-Log Out</title>
    <desc>Created with Sketch.</desc>
    <g id="Page-1" stroke="none" stroke-width="1" fill="none" fill-rule="evenodd">
        <g id="cc24-Log-Out" fill="#000000" fill-rule="nonzero">
            <g id="Group">
                <path d="M47.9,60.5 C46,60.5 44.4,62.1 44.4,64 L44.4,72 C44.4,72.3 44.2,72.5 43.9,72.5 L8.1,72.5 C7.8,72.5 7.6,72.3 7.6,72 L7.6,8 C7.6,7.7 7.8,7.5 8.1,7.5 L43.9,7.5 C44.2,7.5 44.4,7.7 44.4,8 L44.4,16 C44.4,17.9 46,19.5 47.9,19.5 C49.8,19.5 51.4,17.9 51.4,16 L51.4,8 C51.4,3.9 48,0.5 43.9,0.5 L8.1,0.5 C4,0.5 0.6,3.9 0.6,8 L0.6,72 C0.6,76.1 4,79.5 8.1,79.5 L43.9,79.5 C48,79.5 51.4,76.1 51.4,72 L51.4,64 C51.4,62.1 49.8,60.5 47.9,60.5 Z" id="Path"></path>
                <path d="M78.4,37.6 C78.4,37.5 78.4,37.5 78.4,37.6 L62,21.4 C60.6,20 58.4,20.1 57,21.4 C55.6,22.8 55.7,25 57,26.4 L67.3,36.5 L23.3,36.5 C21.4,36.5 19.8,38.1 19.8,40 C19.8,41.9 21.4,43.5 23.3,43.5 L67.3,43.5 L57.1,53.6 C55.7,55 55.7,57.2 57.1,58.6 C58.5,60 60.7,60 62.1,58.6 L78.4,42.5 C79.8,41.2 79.8,38.9 78.4,37.6 Z" id="Path"></path>
            </g>
        </g>
    </g>
</svg>