<svg xmlns="http://www.w3.org/2000/svg" width="25.458" height="25.458" viewBox="0 0 25.458 25.458">
  <g id="instagram_24x24_1x_1_" data-name="instagram(24x24)@1x (1)" transform="translate(0.5 0.5)">
    <path id="Caminho_1217" data-name="Caminho 1217" d="M21.671,24.689H5.018A3.016,3.016,0,0,1,2,21.671V5.018A3.016,3.016,0,0,1,5.018,2H21.66a3.019,3.019,0,0,1,3.029,3.018V21.66A3.019,3.019,0,0,1,21.671,24.689Z" transform="translate(0.269 0.269)" fill="#ff4767" stroke="#221b38" stroke-linecap="round" stroke-linejoin="round" stroke-miterlimit="10" stroke-width="0" opacity="0.4"/>
    <path id="Caminho_1218" data-name="Caminho 1218" d="M21.671,24.689H5.018A3.016,3.016,0,0,1,2,21.671V5.018A3.016,3.016,0,0,1,5.018,2H21.66a3.019,3.019,0,0,1,3.029,3.018V21.66A3.019,3.019,0,0,1,21.671,24.689Z" transform="translate(-2 -2)" fill="none" stroke="#3a3164" stroke-linecap="round" stroke-linejoin="round" stroke-miterlimit="10" stroke-width="1"/>
    <path id="Caminho_1219" data-name="Caminho 1219" d="M17.076,12.538A4.538,4.538,0,1,1,12.538,8,4.537,4.537,0,0,1,17.076,12.538Z" transform="translate(1.076 1.076)" fill="#ff4767" stroke="#221b38" stroke-linecap="round" stroke-linejoin="round" stroke-miterlimit="10" stroke-width="0"/>
    <path id="Caminho_1220" data-name="Caminho 1220" d="M17.076,12.538A4.538,4.538,0,1,1,12.538,8,4.537,4.537,0,0,1,17.076,12.538Z" transform="translate(-1.193 -1.193)" fill="none" stroke="#221b38" stroke-linecap="round" stroke-linejoin="round" stroke-miterlimit="10" stroke-width="1"/>
    <path id="Caminho_1221" data-name="Caminho 1221" d="M19.134,5.567A.567.567,0,1,1,18.567,5,.562.562,0,0,1,19.134,5.567Z" transform="translate(2.42 0.672)" fill="#ff4767" stroke="#221b38" stroke-linecap="round" stroke-linejoin="round" stroke-miterlimit="10" stroke-width="0"/>
    <path id="Caminho_1222" data-name="Caminho 1222" d="M19.134,5.567A.567.567,0,1,1,18.567,5,.562.562,0,0,1,19.134,5.567Z" transform="translate(0.151 -1.597)" fill="none" stroke="#221b38" stroke-linecap="round" stroke-linejoin="round" stroke-miterlimit="10" stroke-width="1"/>
  </g>
</svg>
