<svg xmlns="http://www.w3.org/2000/svg" width="25.469" height="20.92" viewBox="0 0 25.469 20.92">
  <g id="Grupo_3395" data-name="Grupo 3395" transform="translate(-107.5 -1257.812)">
    <g id="twitter_24x24_1x" data-name="twitter(24x24)@1x" transform="translate(108 1258.312)">
      <path id="Caminho_1211" data-name="Caminho 1211" d="M24.69,6.144a10.158,10.158,0,0,1-2.677.726,4.559,4.559,0,0,0,2.042-2.53,9.441,9.441,0,0,1-2.95,1.112A4.675,4.675,0,0,0,17.713,4a4.614,4.614,0,0,0-4.651,4.583,5.17,5.17,0,0,0,.1,1.044A13.282,13.282,0,0,1,3.578,4.839a4.531,4.531,0,0,0,1.429,6.115,4.527,4.527,0,0,1-2.1-.567v.045a4.628,4.628,0,0,0,3.721,4.5,4.711,4.711,0,0,1-1.225.147A3.836,3.836,0,0,1,4.52,15a4.67,4.67,0,0,0,4.345,3.188A9.392,9.392,0,0,1,3.1,20.143a8.867,8.867,0,0,1-1.112-.068,13.179,13.179,0,0,0,7.147,2.076A13.035,13.035,0,0,0,22.376,9.116c0-.2-.011-.4-.023-.59A9.149,9.149,0,0,0,24.69,6.144Z" transform="translate(0.279 -1.731)" fill="#ff4767" stroke="#221b38" stroke-linecap="round" stroke-linejoin="round" stroke-miterlimit="10" stroke-width="0" opacity="0.839"/>
      <path id="Caminho_1212" data-name="Caminho 1212" d="M24.69,6.144a10.158,10.158,0,0,1-2.677.726,4.559,4.559,0,0,0,2.042-2.53,9.441,9.441,0,0,1-2.95,1.112A4.675,4.675,0,0,0,17.713,4a4.614,4.614,0,0,0-4.651,4.583,5.17,5.17,0,0,0,.1,1.044A13.282,13.282,0,0,1,3.578,4.839a4.531,4.531,0,0,0,1.429,6.115,4.527,4.527,0,0,1-2.1-.567v.045a4.628,4.628,0,0,0,3.721,4.5,4.711,4.711,0,0,1-1.225.147A3.836,3.836,0,0,1,4.52,15a4.67,4.67,0,0,0,4.345,3.188A9.392,9.392,0,0,1,3.1,20.143a8.867,8.867,0,0,1-1.112-.068,13.179,13.179,0,0,0,7.147,2.076A13.035,13.035,0,0,0,22.376,9.116c0-.2-.011-.4-.023-.59A9.149,9.149,0,0,0,24.69,6.144Z" transform="translate(-1.99 -4)" fill="none" stroke="#3a3164" stroke-linecap="round" stroke-linejoin="round" stroke-miterlimit="10" stroke-width="1"/>
    </g>
  </g>
</svg>
