<svg xmlns="http://www.w3.org/2000/svg" width="57.009" height="58.995" viewBox="0 0 57.009 58.995">
  <defs>
    <style>
      .cls-1 {
        fill: #ff4767;
      }
    </style>
  </defs>
  <g id="Grupo_3269" data-name="Grupo 3269" transform="translate(-151.514 -46.973)">
    <g id="Grupo_3268" data-name="Grupo 3268">
      <g id="Grupo_310" data-name="Grupo 310" transform="translate(66.472 -200.892)">
        <path id="Caminho_1" data-name="Caminho 1" class="cls-1" d="M394.045,223.818c-4.839-5.221-9.443-10.262-14.13-15.225a65.892,65.892,0,0,1-10.132-13.149c-2.334-4.219-3.879-8.734-3.616-13.605.351-6.5,2.867-11.938,8.815-15.2a12.722,12.722,0,0,1,16.141,2.885,13.623,13.623,0,0,1,.649,16.7,12.878,12.878,0,0,1-10.96,5.551c-1.041,0-2.083-.015-3.122.041a3.093,3.093,0,0,0-.928.378,2.974,2.974,0,0,0,.967.454c1.072.066,2.15.066,3.225.042a12.958,12.958,0,0,1,13.178,13.289c-.031,5.548-.006,11.1-.01,16.645C394.121,222.921,394.084,223.223,394.045,223.818Z" transform="translate(-281.095 83.042)"/>
        <path id="Caminho_2" data-name="Caminho 2" class="cls-1" d="M484.621,223.155c0-1.474,0-2.949,0-4.423.017-4.474-.007-8.948.068-13.421a13.148,13.148,0,0,1,13.744-13.117,21.519,21.519,0,0,0,2.7-.038,3.334,3.334,0,0,0,1.008-.451,3.1,3.1,0,0,0-.986-.418c-1.593-.065-3.2.065-4.78-.106a13.333,13.333,0,0,1-10.157-19.651c4.643-8.478,15.736-9.553,22.02-2.02,4.551,5.456,5.4,11.737,3.567,18.5a37.831,37.831,0,0,1-8.344,14.839c-4.9,5.66-10.054,11.1-15.1,16.635-1.153,1.264-2.321,2.514-3.482,3.77Z" transform="translate(-370.661 83.405)"/>
      </g>
    </g>
  </g>
</svg>
