<svg id="Camada_1" data-name="Camada 1" xmlns="http://www.w3.org/2000/svg" viewBox="0 0 821.44 638.59"><defs><style>.cls-1{fill:#fff;}.cls-2{fill:#ff4767;}</style></defs><path class="cls-1" d="M415.67,463.13c-36.63-39.53-71.49-77.7-107-115.27-28.94-30.65-56.23-62.54-76.71-99.56-17.67-31.94-29.37-66.13-27.38-103,2.65-49.23,21.7-90.39,66.74-115.13,42.57-23.38,91.59-14,122.21,21.85,30.3,35.51,32.41,89,4.91,126.45-20.55,28-48.18,42.1-83,42-7.88,0-15.77-.11-23.64.31-2.38.13-4.68,1.86-7,2.86,2.43,1.2,4.81,3.28,7.31,3.44,8.12.49,16.28.5,24.42.31,56-1.27,100.09,44.15,99.77,100.62-.23,42,0,84-.07,126C416.25,456.34,416,458.63,415.67,463.13Z" transform="translate(-10.44 -16.45)"/><path class="cls-1" d="M423.32,460.85c0-11.16,0-22.33,0-33.49.13-33.87-.05-67.75.51-101.61,1-58.93,48.92-101.92,104.07-99.32a164.34,164.34,0,0,0,20.46-.28c2.62-.21,5.1-2.23,7.64-3.42-2.49-1.1-4.94-3.06-7.47-3.17-12.06-.49-24.24.49-36.19-.8-70.94-7.66-111.28-86-76.9-148.78C470.6,5.79,554.59-2.35,602.17,54.69c34.46,41.31,40.89,88.86,27,140.09-11.61,42.84-34.68,79.44-63.17,112.35-37.11,42.85-76.13,84.06-114.35,126-8.73,9.56-17.57,19-26.36,28.54Z" transform="translate(-10.44 -16.45)"/><path class="cls-2" d="M10.44,597.13c0-22.14,17-38,39.87-38,12.7,0,23.3,4.62,30.22,13L69.62,582.23a23.62,23.62,0,0,0-18.47-8.61c-13.74,0-23.5,9.66-23.5,23.51s9.76,23.5,23.5,23.5a23.41,23.41,0,0,0,18.47-8.71L80.53,622c-6.92,8.5-17.52,13.12-30.32,13.12C27.44,635.11,10.44,619.26,10.44,597.13Z" transform="translate(-10.44 -16.45)"/><path class="cls-2" d="M90.81,556h16.37v77.85H90.81Z" transform="translate(-10.44 -16.45)"/><path class="cls-2" d="M120.4,560.4c0-5.14,4.09-9.13,10.18-9.13s10.18,3.78,10.18,8.82c0,5.45-4.1,9.44-10.18,9.44S120.4,565.54,120.4,560.4Zm2,17h16.37v56.45H122.39Z" transform="translate(-10.44 -16.45)"/><path class="cls-2" d="M149.78,605.62c0-17,13.11-29.06,31.48-29.06,11.85,0,21.19,5.14,25.28,14.38l-12.69,6.81c-3-5.35-7.56-7.76-12.7-7.76-8.29,0-14.79,5.77-14.79,15.63s6.5,15.64,14.79,15.64c5.14,0,9.65-2.31,12.7-7.77l12.69,6.93c-4.09,9-13.43,14.27-25.28,14.27C162.89,634.69,149.78,622.62,149.78,605.62Z" transform="translate(-10.44 -16.45)"/><path class="cls-2" d="M239.8,611.71l-7.87,7.76v14.38H215.57V556h16.36v44.06l23.93-22.66h19.51l-23.5,23.92,25.6,32.53H257.64Z" transform="translate(-10.44 -16.45)"/><path class="cls-2" d="M311,597.13c0-22.14,17-38,39.87-38,12.7,0,23.3,4.62,30.22,13l-10.91,10.08a23.62,23.62,0,0,0-18.47-8.61c-13.74,0-23.5,9.66-23.5,23.51s9.76,23.5,23.5,23.5a23.41,23.41,0,0,0,18.47-8.71L381.13,622c-6.92,8.5-17.52,13.12-30.32,13.12C328,635.11,311,619.26,311,597.13Z" transform="translate(-10.44 -16.45)"/><path class="cls-2" d="M385.22,605.62c0-17,13.12-29.06,31.06-29.06s31,12.07,31,29.06-13,29.07-31,29.07S385.22,622.62,385.22,605.62Zm45.43,0c0-9.75-6.19-15.63-14.37-15.63s-14.48,5.88-14.48,15.63,6.3,15.64,14.48,15.64S430.65,615.38,430.65,605.62Z" transform="translate(-10.44 -16.45)"/><path class="cls-2" d="M553.52,601.53v32.32H537.15v-29.8c0-9.13-4.09-13.32-10.7-13.32-7.35,0-12.49,4.72-12.49,14.79v28.33H497.59v-29.8c0-9.13-3.88-13.32-10.7-13.32-7.24,0-12.38,4.72-12.38,14.79v28.33H458.14V577.4h15.64v6.51c4.19-4.83,10.49-7.35,17.73-7.35,7.87,0,14.58,3,18.57,9.23,4.51-5.77,11.86-9.23,20.36-9.23C543.87,576.56,553.52,584.32,553.52,601.53Z" transform="translate(-10.44 -16.45)"/><path class="cls-2" d="M629.69,605.62c0,17.74-12.27,29.07-28.12,29.07-7,0-12.8-2.21-17-6.82V654.2H568.21V577.4h15.63v6.51c4.09-4.94,10.18-7.35,17.73-7.35C617.42,576.56,629.69,587.89,629.69,605.62Zm-16.58,0c0-9.75-6.19-15.63-14.37-15.63s-14.37,5.88-14.37,15.63,6.19,15.64,14.37,15.64S613.11,615.38,613.11,605.62Z" transform="translate(-10.44 -16.45)"/><path class="cls-2" d="M689.6,601.64v32.21H674.29v-7c-3,5.14-8.92,7.87-17.21,7.87-13.22,0-21.09-7.35-21.09-17.1,0-10,7-16.9,24.24-16.9h13c0-7-4.2-11.12-13-11.12-6,0-12.18,2-16.27,5.25l-5.87-11.44c6.19-4.41,15.32-6.82,24.34-6.82C679.64,576.56,689.6,584.53,689.6,601.64ZM673.24,616v-5.77H662c-7.66,0-10.07,2.83-10.07,6.61,0,4.09,3.46,6.82,9.23,6.82C666.63,623.67,671.35,621.15,673.24,616Z" transform="translate(-10.44 -16.45)"/><path class="cls-2" d="M762.1,601.53v32.32H745.74v-29.8c0-9.13-4.2-13.32-11.44-13.32-7.87,0-13.53,4.82-13.53,15.21v27.91H704.4V577.4H720V584c4.41-4.83,11-7.45,18.68-7.45C752,576.56,762.1,584.32,762.1,601.53Z" transform="translate(-10.44 -16.45)"/><path class="cls-2" d="M831.88,577.4l-25.5,59.91C800.93,651,793.16,655,783,655c-5.78,0-12.07-1.89-15.74-5.14l6-11.64a14.52,14.52,0,0,0,9.23,3.56c4.51,0,7-2,9.23-7l.21-.52L767.46,577.4h16.89l15.84,38.3,15.95-38.3Z" transform="translate(-10.44 -16.45)"/></svg>