<svg id="Camada_1" data-name="Camada 1" xmlns="http://www.w3.org/2000/svg" viewBox="0 0 1051.43 194.61"><defs><style>.cls-1{fill:#fff;}.cls-2{fill:#ff4767;}</style></defs><path class="cls-1" d="M261.86,145.12c0-22,16.92-37.81,39.68-37.81,12.64,0,23.19,4.59,30.08,13l-10.86,10a23.52,23.52,0,0,0-18.38-8.56c-13.68,0-23.4,9.61-23.4,23.4s9.72,23.39,23.4,23.39a23.28,23.28,0,0,0,18.38-8.67l10.86,10c-6.89,8.46-17.44,13-30.18,13C278.78,182.92,261.86,167.15,261.86,145.12Z" transform="translate(-28.11 -46.41)"/><path class="cls-1" d="M341.86,104.17h16.29v77.5H341.86Z" transform="translate(-28.11 -46.41)"/><path class="cls-1" d="M371.31,108.56c0-5.12,4.07-9.09,10.13-9.09s10.13,3.76,10.13,8.78c0,5.43-4.07,9.4-10.13,9.4S371.31,113.68,371.31,108.56Zm2,16.92h16.3v56.19h-16.3Z" transform="translate(-28.11 -46.41)"/><path class="cls-1" d="M400.55,153.57c0-16.92,13.06-28.93,31.34-28.93,11.8,0,21.09,5.12,25.17,14.31l-12.64,6.79c-3-5.32-7.52-7.73-12.64-7.73-8.25,0-14.72,5.75-14.72,15.56s6.47,15.57,14.72,15.57c5.12,0,9.61-2.3,12.64-7.73l12.64,6.89c-4.08,9-13.37,14.21-25.17,14.21C413.61,182.51,400.55,170.49,400.55,153.57Z" transform="translate(-28.11 -46.41)"/><path class="cls-1" d="M490.16,159.63l-7.83,7.73v14.31H466v-77.5h16.29V148l23.82-22.56h19.42l-23.39,23.81,25.48,32.38H507.92Z" transform="translate(-28.11 -46.41)"/><path class="cls-2" d="M561.08,145.12c0-22,16.92-37.81,39.69-37.81,12.64,0,23.18,4.59,30.08,13l-10.86,10a23.54,23.54,0,0,0-18.39-8.56c-13.68,0-23.39,9.61-23.39,23.4s9.71,23.39,23.39,23.39A23.3,23.3,0,0,0,620,159.84l10.86,10c-6.9,8.46-17.44,13-30.19,13C578,182.92,561.08,167.15,561.08,145.12Z" transform="translate(-28.11 -46.41)"/><path class="cls-2" d="M634.92,153.57c0-16.92,13.06-28.93,30.91-28.93s30.82,12,30.82,28.93-13,28.94-30.82,28.94S634.92,170.49,634.92,153.57Zm45.22,0c0-9.71-6.16-15.56-14.31-15.56s-14.41,5.85-14.41,15.56,6.27,15.57,14.41,15.57S680.14,163.29,680.14,153.57Z" transform="translate(-28.11 -46.41)"/><path class="cls-2" d="M802.45,149.5v32.17h-16.3V152c0-9.09-4.07-13.27-10.65-13.27-7.31,0-12.43,4.7-12.43,14.73v28.2H746.78V152c0-9.09-3.87-13.27-10.65-13.27-7.21,0-12.33,4.7-12.33,14.73v28.2H707.51V125.48h15.56V132c4.18-4.81,10.44-7.32,17.65-7.32,7.83,0,14.52,3,18.49,9.19,4.49-5.74,11.8-9.19,20.26-9.19C792.84,124.64,802.45,132.37,802.45,149.5Z" transform="translate(-28.11 -46.41)"/><path class="cls-2" d="M878.27,153.57c0,17.66-12.22,28.94-28,28.94-7,0-12.74-2.2-16.92-6.79v26.21H817.07V125.48h15.56V132c4.07-4.91,10.13-7.32,17.65-7.32C866.05,124.64,878.27,135.92,878.27,153.57Zm-16.5,0c0-9.71-6.16-15.56-14.31-15.56s-14.31,5.85-14.31,15.56,6.16,15.57,14.31,15.57S861.77,163.29,861.77,153.57Z" transform="translate(-28.11 -46.41)"/><path class="cls-2" d="M937.91,149.61v32.06H922.66v-7c-3,5.12-8.88,7.84-17.13,7.84-13.16,0-21-7.32-21-17,0-9.92,7-16.81,24.13-16.81h13c0-7-4.18-11.07-13-11.07-6,0-12.12,2-16.19,5.22l-5.85-11.39c6.16-4.38,15.25-6.79,24.23-6.79C928,124.64,937.91,132.58,937.91,149.61Zm-16.29,14.3v-5.74H910.44c-7.62,0-10,2.82-10,6.58,0,4.07,3.45,6.79,9.2,6.79C915,171.54,919.74,169,921.62,163.91Z" transform="translate(-28.11 -46.41)"/><path class="cls-2" d="M1010.08,149.5v32.17H993.79V152c0-9.09-4.18-13.27-11.39-13.27-7.83,0-13.47,4.81-13.47,15.15v27.78h-16.3V125.48H968.2v6.58c4.38-4.8,11-7.42,18.59-7.42C1000.05,124.64,1010.08,132.37,1010.08,149.5Z" transform="translate(-28.11 -46.41)"/><path class="cls-2" d="M1079.53,125.48l-25.38,59.64c-5.43,13.57-13.16,17.65-23.29,17.65-5.74,0-12-1.88-15.66-5.12l5.95-11.59a14.46,14.46,0,0,0,9.19,3.55c4.49,0,7-2,9.19-7l.21-.52-24.33-56.61h16.81L1048,163.6l15.88-38.12Z" transform="translate(-28.11 -46.41)"/><path class="cls-1" d="M120.16,241c-16-17.22-31.15-33.85-46.61-50.22-12.61-13.35-24.5-27.24-33.42-43.37-7.7-13.92-12.79-28.81-11.93-44.88,1.16-21.45,9.46-39.38,29.08-50.16,18.55-10.19,39.9-6.11,53.24,9.52,13.2,15.47,14.12,38.77,2.14,55.09-9,12.2-21,18.34-36.15,18.31-3.43,0-6.87-.05-10.3.13-1,.06-2,.82-3.06,1.25,1.06.52,2.1,1.43,3.19,1.5,3.54.22,7.09.22,10.64.14,24.39-.56,43.6,19.23,43.47,43.83-.11,18.3,0,36.61,0,54.91C120.41,238.05,120.29,239.05,120.16,241Z" transform="translate(-28.11 -46.41)"/><path class="cls-1" d="M123.5,240c0-4.86,0-9.73,0-14.59,0-14.76,0-29.52.22-44.27.43-25.67,21.31-44.41,45.34-43.27a69.86,69.86,0,0,0,8.92-.13c1.14-.09,2.22-1,3.32-1.48-1.08-.48-2.15-1.34-3.25-1.38-5.25-.22-10.56.21-15.77-.35-30.9-3.34-48.48-37.48-33.5-64.82,15.31-28,51.91-31.51,72.63-6.66,15,18,17.82,38.71,11.77,61-5.06,18.66-15.11,34.61-27.53,49-16.16,18.67-33.16,36.62-49.81,54.87-3.81,4.17-7.66,8.29-11.49,12.44Z" transform="translate(-28.11 -46.41)"/></svg>